<svg xmlns="http://www.w3.org/2000/svg" xmlns:xlink="http://www.w3.org/1999/xlink" width="92" height="283" viewBox="0 0 92 283">
  <defs>
    <clipPath id="clip-path">
      <rect width="92" height="283" fill="none"/>
    </clipPath>
  </defs>
  <g id="Repeat_Grid_2" data-name="Repeat Grid 2" opacity="0.1" clip-path="url(#clip-path)">
    <g transform="translate(-1020 -2393)">
      <circle id="Ellipse_16" data-name="Ellipse 16" cx="3.5" cy="3.5" r="3.5" transform="translate(1020 2393)" fill="#31c5fe"/>
    </g>
    <g transform="translate(-993 -2393)">
      <circle id="Ellipse_16-2" data-name="Ellipse 16" cx="3.5" cy="3.5" r="3.5" transform="translate(1020 2393)" fill="#31c5fe"/>
    </g>
    <g transform="translate(-966 -2393)">
      <circle id="Ellipse_16-3" data-name="Ellipse 16" cx="3.5" cy="3.5" r="3.5" transform="translate(1020 2393)" fill="#31c5fe"/>
    </g>
    <g transform="translate(-939 -2393)">
      <circle id="Ellipse_16-4" data-name="Ellipse 16" cx="3.5" cy="3.5" r="3.5" transform="translate(1020 2393)" fill="#31c5fe"/>
    </g>
    <g transform="translate(-1020 -2366)">
      <circle id="Ellipse_16-5" data-name="Ellipse 16" cx="3.5" cy="3.5" r="3.5" transform="translate(1020 2393)" fill="#31c5fe"/>
    </g>
    <g transform="translate(-993 -2366)">
      <circle id="Ellipse_16-6" data-name="Ellipse 16" cx="3.5" cy="3.5" r="3.5" transform="translate(1020 2393)" fill="#31c5fe"/>
    </g>
    <g transform="translate(-966 -2366)">
      <circle id="Ellipse_16-7" data-name="Ellipse 16" cx="3.5" cy="3.5" r="3.5" transform="translate(1020 2393)" fill="#31c5fe"/>
    </g>
    <g transform="translate(-939 -2366)">
      <circle id="Ellipse_16-8" data-name="Ellipse 16" cx="3.5" cy="3.5" r="3.5" transform="translate(1020 2393)" fill="#31c5fe"/>
    </g>
    <g transform="translate(-1020 -2339)">
      <circle id="Ellipse_16-9" data-name="Ellipse 16" cx="3.5" cy="3.5" r="3.5" transform="translate(1020 2393)" fill="#31c5fe"/>
    </g>
    <g transform="translate(-993 -2339)">
      <circle id="Ellipse_16-10" data-name="Ellipse 16" cx="3.5" cy="3.5" r="3.5" transform="translate(1020 2393)" fill="#31c5fe"/>
    </g>
    <g transform="translate(-966 -2339)">
      <circle id="Ellipse_16-11" data-name="Ellipse 16" cx="3.5" cy="3.5" r="3.5" transform="translate(1020 2393)" fill="#31c5fe"/>
    </g>
    <g transform="translate(-939 -2339)">
      <circle id="Ellipse_16-12" data-name="Ellipse 16" cx="3.5" cy="3.5" r="3.5" transform="translate(1020 2393)" fill="#31c5fe"/>
    </g>
    <g transform="translate(-1020 -2312)">
      <circle id="Ellipse_16-13" data-name="Ellipse 16" cx="3.5" cy="3.5" r="3.5" transform="translate(1020 2393)" fill="#31c5fe"/>
    </g>
    <g transform="translate(-993 -2312)">
      <circle id="Ellipse_16-14" data-name="Ellipse 16" cx="3.5" cy="3.5" r="3.5" transform="translate(1020 2393)" fill="#31c5fe"/>
    </g>
    <g transform="translate(-966 -2312)">
      <circle id="Ellipse_16-15" data-name="Ellipse 16" cx="3.5" cy="3.5" r="3.5" transform="translate(1020 2393)" fill="#31c5fe"/>
    </g>
    <g transform="translate(-939 -2312)">
      <circle id="Ellipse_16-16" data-name="Ellipse 16" cx="3.5" cy="3.5" r="3.5" transform="translate(1020 2393)" fill="#31c5fe"/>
    </g>
    <g transform="translate(-1020 -2285)">
      <circle id="Ellipse_16-17" data-name="Ellipse 16" cx="3.5" cy="3.5" r="3.5" transform="translate(1020 2393)" fill="#31c5fe"/>
    </g>
    <g transform="translate(-993 -2285)">
      <circle id="Ellipse_16-18" data-name="Ellipse 16" cx="3.5" cy="3.5" r="3.5" transform="translate(1020 2393)" fill="#31c5fe"/>
    </g>
    <g transform="translate(-966 -2285)">
      <circle id="Ellipse_16-19" data-name="Ellipse 16" cx="3.5" cy="3.5" r="3.5" transform="translate(1020 2393)" fill="#31c5fe"/>
    </g>
    <g transform="translate(-939 -2285)">
      <circle id="Ellipse_16-20" data-name="Ellipse 16" cx="3.5" cy="3.5" r="3.5" transform="translate(1020 2393)" fill="#31c5fe"/>
    </g>
    <g transform="translate(-1020 -2258)">
      <circle id="Ellipse_16-21" data-name="Ellipse 16" cx="3.5" cy="3.5" r="3.5" transform="translate(1020 2393)" fill="#31c5fe"/>
    </g>
    <g transform="translate(-993 -2258)">
      <circle id="Ellipse_16-22" data-name="Ellipse 16" cx="3.5" cy="3.5" r="3.5" transform="translate(1020 2393)" fill="#31c5fe"/>
    </g>
    <g transform="translate(-966 -2258)">
      <circle id="Ellipse_16-23" data-name="Ellipse 16" cx="3.5" cy="3.5" r="3.5" transform="translate(1020 2393)" fill="#31c5fe"/>
    </g>
    <g transform="translate(-939 -2258)">
      <circle id="Ellipse_16-24" data-name="Ellipse 16" cx="3.5" cy="3.5" r="3.5" transform="translate(1020 2393)" fill="#31c5fe"/>
    </g>
    <g transform="translate(-1020 -2231)">
      <circle id="Ellipse_16-25" data-name="Ellipse 16" cx="3.5" cy="3.5" r="3.5" transform="translate(1020 2393)" fill="#31c5fe"/>
    </g>
    <g transform="translate(-993 -2231)">
      <circle id="Ellipse_16-26" data-name="Ellipse 16" cx="3.5" cy="3.5" r="3.5" transform="translate(1020 2393)" fill="#31c5fe"/>
    </g>
    <g transform="translate(-966 -2231)">
      <circle id="Ellipse_16-27" data-name="Ellipse 16" cx="3.5" cy="3.5" r="3.5" transform="translate(1020 2393)" fill="#31c5fe"/>
    </g>
    <g transform="translate(-939 -2231)">
      <circle id="Ellipse_16-28" data-name="Ellipse 16" cx="3.5" cy="3.5" r="3.5" transform="translate(1020 2393)" fill="#31c5fe"/>
    </g>
    <g transform="translate(-1020 -2204)">
      <circle id="Ellipse_16-29" data-name="Ellipse 16" cx="3.5" cy="3.5" r="3.5" transform="translate(1020 2393)" fill="#31c5fe"/>
    </g>
    <g transform="translate(-993 -2204)">
      <circle id="Ellipse_16-30" data-name="Ellipse 16" cx="3.5" cy="3.5" r="3.5" transform="translate(1020 2393)" fill="#31c5fe"/>
    </g>
    <g transform="translate(-966 -2204)">
      <circle id="Ellipse_16-31" data-name="Ellipse 16" cx="3.5" cy="3.5" r="3.5" transform="translate(1020 2393)" fill="#31c5fe"/>
    </g>
    <g transform="translate(-939 -2204)">
      <circle id="Ellipse_16-32" data-name="Ellipse 16" cx="3.5" cy="3.5" r="3.5" transform="translate(1020 2393)" fill="#31c5fe"/>
    </g>
    <g transform="translate(-1020 -2177)">
      <circle id="Ellipse_16-33" data-name="Ellipse 16" cx="3.5" cy="3.5" r="3.5" transform="translate(1020 2393)" fill="#31c5fe"/>
    </g>
    <g transform="translate(-993 -2177)">
      <circle id="Ellipse_16-34" data-name="Ellipse 16" cx="3.5" cy="3.5" r="3.5" transform="translate(1020 2393)" fill="#31c5fe"/>
    </g>
    <g transform="translate(-966 -2177)">
      <circle id="Ellipse_16-35" data-name="Ellipse 16" cx="3.5" cy="3.5" r="3.5" transform="translate(1020 2393)" fill="#31c5fe"/>
    </g>
    <g transform="translate(-939 -2177)">
      <circle id="Ellipse_16-36" data-name="Ellipse 16" cx="3.5" cy="3.5" r="3.5" transform="translate(1020 2393)" fill="#31c5fe"/>
    </g>
    <g transform="translate(-1020 -2150)">
      <circle id="Ellipse_16-37" data-name="Ellipse 16" cx="3.5" cy="3.5" r="3.5" transform="translate(1020 2393)" fill="#31c5fe"/>
    </g>
    <g transform="translate(-993 -2150)">
      <circle id="Ellipse_16-38" data-name="Ellipse 16" cx="3.5" cy="3.5" r="3.5" transform="translate(1020 2393)" fill="#31c5fe"/>
    </g>
    <g transform="translate(-966 -2150)">
      <circle id="Ellipse_16-39" data-name="Ellipse 16" cx="3.5" cy="3.5" r="3.5" transform="translate(1020 2393)" fill="#31c5fe"/>
    </g>
    <g transform="translate(-939 -2150)">
      <circle id="Ellipse_16-40" data-name="Ellipse 16" cx="3.5" cy="3.5" r="3.5" transform="translate(1020 2393)" fill="#31c5fe"/>
    </g>
    <g transform="translate(-1020 -2123)">
      <circle id="Ellipse_16-41" data-name="Ellipse 16" cx="3.5" cy="3.5" r="3.5" transform="translate(1020 2393)" fill="#31c5fe"/>
    </g>
    <g transform="translate(-993 -2123)">
      <circle id="Ellipse_16-42" data-name="Ellipse 16" cx="3.5" cy="3.5" r="3.5" transform="translate(1020 2393)" fill="#31c5fe"/>
    </g>
    <g transform="translate(-966 -2123)">
      <circle id="Ellipse_16-43" data-name="Ellipse 16" cx="3.5" cy="3.5" r="3.5" transform="translate(1020 2393)" fill="#31c5fe"/>
    </g>
    <g transform="translate(-939 -2123)">
      <circle id="Ellipse_16-44" data-name="Ellipse 16" cx="3.5" cy="3.5" r="3.5" transform="translate(1020 2393)" fill="#31c5fe"/>
    </g>
  </g>
</svg>
